<?xml version="1.0" encoding="utf-8"?>
<!-- Generator: Adobe Illustrator 22.0.1, SVG Export Plug-In . SVG Version: 6.00 Build 0)  -->
<svg version="1.1" id="Layer_1" xmlns="http://www.w3.org/2000/svg" xmlns:xlink="http://www.w3.org/1999/xlink" x="0px" y="0px"
	 viewBox="0 0 62.7 62" style="enable-background:new 0 0 62.7 62;" xml:space="preserve">
<style type="text/css">
	.st0{fill:#AE4125;}
</style>
<g id="XMLID_188_">
	<g id="XMLID_195_">
		<path id="XMLID_115_" class="st0" d="M55.1,62H40.2c-0.7,0-1.3-0.6-1.3-1.3V35.2H23.8v25.5c0,0.7-0.6,1.3-1.3,1.3H7.6
			c-0.7,0-1.3-0.6-1.3-1.3V23.9c0-0.3,0.1-0.7,0.4-0.9L30.5,0.3c0.5-0.5,1.3-0.5,1.7,0L56,23c0.2,0.2,0.4,0.6,0.4,0.9v36.8
			C56.4,61.4,55.8,62,55.1,62z M41.4,59.4h12.4v-35L31.4,3L8.9,24.4v35h12.4V33.9c0-0.7,0.6-1.3,1.3-1.3h17.6c0.7,0,1.3,0.6,1.3,1.3
			V59.4z"/>
	</g>
	<g id="XMLID_185_">
		<path id="XMLID_4_" class="st0" d="M1.3,31c-0.3,0-0.7-0.1-0.9-0.4c-0.5-0.5-0.5-1.3,0-1.8L30.5,0.3c0.5-0.5,1.3-0.5,1.8,0
			c0.5,0.5,0.5,1.3,0,1.8L2.1,30.7C1.9,30.9,1.6,31,1.3,31z"/>
	</g>
	<g id="XMLID_187_">
		<path id="XMLID_3_" class="st0" d="M61.5,31c-0.3,0-0.6-0.1-0.9-0.3L30.5,2.2c-0.5-0.5-0.5-1.3,0-1.8c0.5-0.5,1.3-0.5,1.8,0
			l30.1,28.5c0.5,0.5,0.5,1.3,0,1.8C62.1,30.9,61.8,31,61.5,31z"/>
	</g>
</g>
</svg>
