<?xml version="1.0" encoding="utf-8"?>
<!-- Generator: Adobe Illustrator 23.0.0, SVG Export Plug-In . SVG Version: 6.00 Build 0)  -->
<svg version="1.1" id="Capa_1" xmlns="http://www.w3.org/2000/svg" xmlns:xlink="http://www.w3.org/1999/xlink" x="0px" y="0px"
	 viewBox="0 0 1362.3 1374.3" style="enable-background:new 0 0 1362.3 1374.3;" xml:space="preserve">
<style type="text/css">
	.st0{fill:#A2422E;}
	.st1{fill:#FFFFFF;}
	.st2{fill:#A3422E;}
</style>
<path class="st0" d="M678.8,166.2c-290.8,0-526.5,235.7-526.5,526.5c0,290.8,235.7,526.5,526.5,526.5
	c290.8,0,526.5-235.7,526.5-526.5C1205.3,401.9,969.6,166.2,678.8,166.2z M678.8,1168.6c-262.8,0-475.9-213.1-475.9-475.9
	c0-262.9,213.1-475.9,475.9-475.9c262.8,0,475.9,213.1,475.9,475.9C1154.7,955.5,941.7,1168.6,678.8,1168.6z"/>
<path class="st0" d="M678.8,24.2c-369.2,0-668.5,299.3-668.5,668.5s299.3,668.5,668.5,668.5c369.2,0,668.5-299.3,668.5-668.5
	S1048,24.2,678.8,24.2z M678.8,1310.8c-341.4,0-618.1-276.7-618.1-618.1c0-341.4,276.7-618.1,618.1-618.1
	c341.4,0,618.1,276.7,618.1,618.1C1296.9,1034.1,1020.2,1310.8,678.8,1310.8z"/>
<path class="st1" d="M678.8,166.2c-290.8,0-526.5,235.7-526.5,526.5c0,290.8,235.7,526.5,526.5,526.5
	c290.8,0,526.5-235.7,526.5-526.5C1205.3,401.9,969.6,166.2,678.8,166.2z M678.8,1168.6c-262.8,0-475.9-213.1-475.9-475.9
	c0-262.9,213.1-475.9,475.9-475.9c262.8,0,475.9,213.1,475.9,475.9C1154.7,955.5,941.7,1168.6,678.8,1168.6z"/>
<path class="st2" d="M678.8,166.2c-290.8,0-526.5,235.7-526.5,526.5c0,290.8,235.7,526.5,526.5,526.5
	c290.8,0,526.5-235.7,526.5-526.5C1205.3,401.9,969.6,166.2,678.8,166.2z M678.8,1168.6c-262.8,0-475.9-213.1-475.9-475.9
	c0-262.9,213.1-475.9,475.9-475.9c262.8,0,475.9,213.1,475.9,475.9C1154.7,955.5,941.7,1168.6,678.8,1168.6z"/>
<path class="st0" d="M850.4,545.8c0-14.9-12.1-26.9-26.9-26.9c-6.6,0-12.6,2.4-17.3,6.3l0,0l-0.5,0.5c-0.8,0.7-1.6,1.5-2.3,2.3
	l-97.6,97.6V321c0-14.9-12.1-26.9-26.9-26.9c-14.9,0-26.9,12.1-26.9,26.9v371.7h0.1c1.1,13.8,12.7,24.7,26.8,24.7
	c6.9,0,13.1-2.6,17.9-6.8l0,0l147.4-147.4l-0.1-0.1C848,558.4,850.4,552.3,850.4,545.8z"/>
</svg>
