<?xml version="1.0" encoding="utf-8"?>
<!-- Generator: Adobe Illustrator 22.0.1, SVG Export Plug-In . SVG Version: 6.00 Build 0)  -->
<svg version="1.1" id="Layer_1" xmlns="http://www.w3.org/2000/svg" xmlns:xlink="http://www.w3.org/1999/xlink" x="0px" y="0px"
	 viewBox="0 0 62.7 62" style="enable-background:new 0 0 62.7 62;" xml:space="preserve">
<style type="text/css">
	.st0{fill:#AE4125;}
</style>
<g id="XMLID_9_">
	<g id="XMLID_21_">
		<g id="XMLID_23_">
			<path id="XMLID_639_" class="st0" d="M30.7,63.4C12.9,63.4-1.6,49-1.6,31.2c0-17.8,14.5-32.2,32.2-32.2
				c17.8,0,32.2,14.5,32.2,32.2C62.9,49,48.5,63.4,30.7,63.4z M30.7,1.5C14.3,1.5,1,14.8,1,31.2c0,16.4,13.3,29.7,29.7,29.7
				c16.4,0,29.7-13.3,29.7-29.7C60.4,14.8,47.1,1.5,30.7,1.5z"/>
		</g>
		<g id="XMLID_22_">
			<path id="XMLID_636_" class="st0" d="M30.7,56.5c-14,0-25.3-11.4-25.3-25.3S16.7,5.9,30.7,5.9c14,0,25.3,11.4,25.3,25.3
				S44.7,56.5,30.7,56.5z M30.7,8.4C18.1,8.4,7.9,18.6,7.9,31.2S18.1,54,30.7,54c12.6,0,22.8-10.2,22.8-22.8S43.3,8.4,30.7,8.4z"/>
		</g>
		<g id="XMLID_30_">
			<path id="XMLID_635_" class="st0" d="M30.7,32.4c-0.7,0-1.3-0.6-1.3-1.3V13.3c0-0.7,0.6-1.3,1.3-1.3c0.7,0,1.3,0.6,1.3,1.3v17.9
				C31.9,31.9,31.4,32.4,30.7,32.4z"/>
		</g>
		<g id="XMLID_33_">
			<path id="XMLID_634_" class="st0" d="M30.7,32.4c-0.3,0-0.6-0.1-0.9-0.4c-0.5-0.5-0.5-1.3,0-1.8l6.9-6.9c0.5-0.5,1.3-0.5,1.8,0
				c0.5,0.5,0.5,1.3,0,1.8l-6.9,6.9C31.3,32.3,31,32.4,30.7,32.4z"/>
		</g>
	</g>
</g>
</svg>
