<?xml version="1.0" encoding="utf-8"?>
<!-- Generator: Adobe Illustrator 22.0.1, SVG Export Plug-In . SVG Version: 6.00 Build 0)  -->
<svg version="1.1" id="Layer_1" xmlns="http://www.w3.org/2000/svg" xmlns:xlink="http://www.w3.org/1999/xlink" x="0px" y="0px"
	 viewBox="0 0 62.7 62" style="enable-background:new 0 0 62.7 62;" xml:space="preserve">
<style type="text/css">
	.st0{fill:#AF4025;}
</style>
<g id="XMLID_2561_">
	<g id="XMLID_1175_">
		<g id="XMLID_1167_">
			<path id="XMLID_507_" class="st0" d="M60.5,50.5H2.2C1.5,50.5,1,50,1,49.3V12.6c0-0.6,0.5-1.2,1.2-1.2h58.3
				c0.6,0,1.2,0.5,1.2,1.2v36.7C61.7,50,61.2,50.5,60.5,50.5z M3.4,48.2h56V13.8h-56V48.2z"/>
		</g>
		<g id="XMLID_1169_">
			<path id="XMLID_504_" class="st0" d="M31.4,36.1c-0.3,0-0.5-0.1-0.7-0.2L1.6,13.5c-0.4-0.3-0.6-0.8-0.4-1.3
				c0.2-0.5,0.6-0.8,1.1-0.8h58.2c0.5,0,0.9,0.3,1.1,0.8c0.2,0.5,0,1-0.4,1.3L32.1,35.8C31.9,36,31.6,36.1,31.4,36.1z M5.7,13.8
				l25.7,19.7l25.7-19.7H5.7z"/>
		</g>
		<g id="XMLID_1170_">
			<path id="XMLID_503_" class="st0" d="M2.2,50.5c-0.3,0-0.6-0.1-0.8-0.3c-0.5-0.5-0.5-1.2,0-1.7l20.9-20.9c0.5-0.5,1.2-0.5,1.7,0
				c0.5,0.5,0.5,1.2,0,1.7L3,50.2C2.8,50.4,2.5,50.5,2.2,50.5z"/>
		</g>
		<g id="XMLID_1171_">
			<path id="XMLID_502_" class="st0" d="M60.5,50.5c-0.3,0-0.6-0.1-0.8-0.3L38.9,29.4c-0.5-0.5-0.5-1.2,0-1.7c0.5-0.5,1.2-0.5,1.7,0
				l20.8,20.8c0.5,0.5,0.5,1.2,0,1.7C61.1,50.4,60.8,50.5,60.5,50.5z"/>
		</g>
	</g>
</g>
</svg>
