<?xml version="1.0" encoding="utf-8"?>
<!-- Generator: Adobe Illustrator 22.0.1, SVG Export Plug-In . SVG Version: 6.00 Build 0)  -->
<svg version="1.1" id="Layer_1" xmlns="http://www.w3.org/2000/svg" xmlns:xlink="http://www.w3.org/1999/xlink" x="0px" y="0px"
	 viewBox="0 0 62.7 62" style="enable-background:new 0 0 62.7 62;" xml:space="preserve">
<style type="text/css">
	.st0{fill:#AF4025;}
</style>
<g id="XMLID_663_">
	<g id="XMLID_2553_">
		<g id="XMLID_760_">
			<g id="XMLID_61_">
				<path id="XMLID_546_" class="st0" d="M48.1,61.9H14.6c-0.7,0-1.2-0.5-1.2-1.2V29.6c0-0.3,0-21.9,0-22.2V1.3
					c0-0.7,0.5-1.2,1.2-1.2h33.5c0.7,0,1.2,0.5,1.2,1.2v59.5C49.3,61.4,48.8,61.9,48.1,61.9z M15.8,59.5h31.1V2.4H15.8v4.5v23.2
					V59.5z"/>
			</g>
			<g id="XMLID_77_">
				<path id="XMLID_543_" class="st0" d="M43.3,48.5h-24c-0.7,0-1.2-0.5-1.2-1.2V8c0-0.7,0.5-1.2,1.2-1.2h24c0.7,0,1.2,0.5,1.2,1.2
					v39.3C44.5,48,44,48.5,43.3,48.5z M20.6,46.1h21.6v-37H20.6V46.1z"/>
			</g>
			<g id="XMLID_67_">
				<path id="XMLID_540_" class="st0" d="M31.4,59.3c-2.7,0-4.9-2.2-4.9-4.9s2.2-4.9,4.9-4.9c2.7,0,4.9,2.2,4.9,4.9
					S34,59.3,31.4,59.3z M31.4,52c-1.4,0-2.5,1.1-2.5,2.5s1.1,2.5,2.5,2.5c1.4,0,2.5-1.1,2.5-2.5S32.7,52,31.4,52z"/>
			</g>
		</g>
	</g>
</g>
</svg>
